HIERARCHY
ROOT SpineBase
{
  OFFSET 0.000000 0.000000 0.000000
  CHANNELS 6 Xposition Yposition Zposition Zrotation Xrotation Yrotation
  JOINT SpineMid
  {
    OFFSET 0.000000 28.887563 0.000000
    CHANNELS 3 Zrotation Xrotation Yrotation
    JOINT SpineShoulder
    {
      OFFSET 0.279859 21.521260 -0.793878
      CHANNELS 3 Zrotation Xrotation Yrotation
      JOINT Neck
      {
        OFFSET 0.138767 7.135866 -0.537622
        CHANNELS 3 Zrotation Xrotation Yrotation
        JOINT Head
        {
          OFFSET 4.903336 13.333976 -0.652427
          CHANNELS 3 Zrotation Xrotation Yrotation
          End Site
          {
            OFFSET 0 0 0
          }
        }
      }
      JOINT ShoulderLeft
      {
        OFFSET -12.067842 -1.891833 -10.734515
        CHANNELS 3 Zrotation Xrotation Yrotation
        JOINT ElbowLeft
        {
          OFFSET -6.344112 -23.792333 -2.444328
          CHANNELS 3 Zrotation Xrotation Yrotation
          JOINT WristLeft
          {
            OFFSET 0.412085 -20.190885 -2.463405
            CHANNELS 3 Zrotation Xrotation Yrotation
            JOINT HandLeft
            {
              OFFSET 1.604624 -6.834071 0.299109
              CHANNELS 3 Zrotation Xrotation Yrotation
              JOINT HandTipLeft
              {
                OFFSET -0.378682 -6.459620 0.285411
                CHANNELS 3 Zrotation Xrotation Yrotation
                End Site
                {
                  OFFSET 0 0 0
                }
              }
              JOINT ThumbLeft
              {
                OFFSET -2.686578 0.477303 -2.466328
                CHANNELS 3 Zrotation Xrotation Yrotation
                End Site
                {
                  OFFSET 0 0 0
                }
              }
            }
          }
        }
      }
      JOINT ShoulderRight
      {
        OFFSET 14.090240 -4.771791 9.616506
        CHANNELS 3 Zrotation Xrotation Yrotation
        JOINT ElbowRight
        {
          OFFSET 0.908632 -24.924240 4.515959
          CHANNELS 3 Zrotation Xrotation Yrotation
          JOINT WristRight
          {
            OFFSET 0.010768 -19.202240 -3.851486
            CHANNELS 3 Zrotation Xrotation Yrotation
            JOINT HandRight
            {
              OFFSET 0.272547 -5.305117 -2.761035
              CHANNELS 3 Zrotation Xrotation Yrotation
              JOINT HandTipRight
              {
                OFFSET -0.430584 -5.688839 -1.454476
                CHANNELS 3 Zrotation Xrotation Yrotation
                End Site
                {
                  OFFSET 0 0 0
                }
              }
              JOINT ThumbRight
              {
                OFFSET 2.192583 -0.505229 -0.373169
                CHANNELS 3 Zrotation Xrotation Yrotation
                End Site
                {
                  OFFSET 0 0 0
                }
              }
            }
          }
        }
      }
    }
  }
  JOINT HipLeft
  {
    OFFSET -5.604818 1.429888 -6.876268
    CHANNELS 3 Zrotation Xrotation Yrotation
    JOINT KneeLeft
    {
      OFFSET -4.325776 -26.766202 0.357857
      CHANNELS 3 Zrotation Xrotation Yrotation
      JOINT AnkleLeft
      {
        OFFSET -3.682176 -34.227684 6.385655
        CHANNELS 3 Zrotation Xrotation Yrotation
        JOINT FootLeft
        {
          OFFSET 5.045256 -6.444949 -0.247810
          CHANNELS 3 Zrotation Xrotation Yrotation
          End Site
          {
            OFFSET 0 0 0
          }
        }
      }
    }
  }
  JOINT HipRight
  {
    OFFSET 6.158988 0.274286 0.279774
    CHANNELS 3 Zrotation Xrotation Yrotation
    JOINT KneeRight
    {
      OFFSET -3.144815 -27.814745 5.448430
      CHANNELS 3 Zrotation Xrotation Yrotation
      JOINT AnkleRight
      {
        OFFSET -8.703733 -30.024902 2.648466
        CHANNELS 3 Zrotation Xrotation Yrotation
        JOINT FootRight
        {
          OFFSET 2.147732 -7.809314 -3.626701
          CHANNELS 3 Zrotation Xrotation Yrotation
          End Site
          {
            OFFSET 0 0 0
          }
        }
      }
    }
  }
}
MOTION
Frames: 6
Frame Time: 0.033333
-31.788316 66.773927 354.984869 -0.000000 0.000000 -31.312570 0.000000 0.000000 31.312570 -0.000000 0.000000 0.000000 -0.000000 0.000000 0.000000 0.000000 0.000000 0.000000 -0.000000 0.000000 0.000000 -0.000000 0.000000 0.000000 -0.000000 0.000000 0.000000 -0.000000 0.000000 0.000000 0.000000 0.000000 0.000000 0.000000 0.000000 0.000000 -0.000000 0.000000 0.000000 -0.000000 0.000000 0.000000 -0.000000 0.000000 0.000000 -0.000000 0.000000 0.000000 0.000000 0.000000 0.000000 0.000000 0.000000 0.000000 0.000000 0.000000 31.312570 -0.000000 0.000000 0.000000 -0.000000 0.000000 0.000000 0.000000 0.000000 0.000000 0.000000 0.000000 31.312570 -0.000000 0.000000 0.000000 -0.000000 0.000000 0.000000 0.000000 0.000000 0.000000
-31.658605 66.806273 355.076791 -0.063817 0.153866 -31.906577 0.135499 -0.096889 31.906777 -0.000000 0.000000 0.000000 0.284015 -0.730516 0.284515 0.000000 0.000000 0.000000 -0.000000 0.000000 0.000000 -0.000000 0.000000 0.000000 -0.000000 0.000000 0.000000 -0.000000 0.000000 0.000000 0.000000 0.000000 0.000000 0.000000 0.000000 0.000000 -1.349116 -0.717090 -0.278843 -0.024129 -2.222125 0.521204 0.143031 3.482330 0.437549 -4.946511 1.103519 0.814205 0.000000 0.000000 0.000000 0.000000 0.000000 0.000000 0.135499 -0.096889 31.906777 -0.000000 0.000000 0.000000 -0.000000 0.000000 0.000000 0.000000 0.000000 0.000000 0.135499 -0.096889 31.906777 -0.000000 0.000000 0.000000 1.226081 -1.589377 -0.993006 0.000000 0.000000 0.000000
-31.551273 66.828093 355.171408 -0.135668 0.281983 -32.398640 0.265640 -0.165396 32.399358 -0.000000 0.000000 0.000000 0.476732 -1.272676 0.497132 0.000000 0.000000 0.000000 0.324427 0.842419 -0.260346 -0.320630 -0.843871 0.255600 -1.303878 -0.270662 -0.124019 1.303304 0.273414 0.117829 0.000000 0.000000 0.000000 0.000000 0.000000 0.000000 -2.267411 -0.975894 -0.465386 0.075401 -4.008604 0.815456 -0.611662 5.577579 1.240211 -8.394878 1.784758 1.308468 0.000000 0.000000 0.000000 0.000000 0.000000 0.000000 0.287824 -0.971516 32.505905 0.414509 0.691745 -0.108829 -1.433048 -0.347089 -0.223158 0.000000 0.000000 0.000000 0.265640 -0.165396 32.399358 -0.000000 0.000000 0.000000 1.904197 -2.537057 -1.548850 0.000000 0.000000 0.000000
-31.466320 66.839385 355.268718 -0.215512 0.384244 -32.792633 0.389275 -0.206284 32.794056 -0.000000 0.000000 0.000000 0.575419 -1.625974 0.635010 0.000000 0.000000 0.000000 0.451864 1.188628 -0.368057 -0.094879 -0.400040 0.336497 -2.274828 -1.298914 -0.214752 1.918765 0.516006 0.195773 0.000000 0.000000 0.000000 0.000000 0.000000 0.000000 -2.807857 -0.821677 -0.558713 0.230378 -5.506364 0.941760 -2.174031 6.218481 2.371536 -9.633850 2.058137 1.310257 0.000000 0.000000 0.000000 0.000000 0.000000 0.000000 0.527483 -1.343960 32.955770 0.443886 1.840494 -0.261657 -1.920366 -1.338286 -0.277391 0.000000 0.000000 0.000000 0.389275 -0.206284 32.794056 -0.000000 0.000000 0.000000 2.049915 -2.822241 -1.688818 0.000000 0.000000 0.000000
-31.403747 66.840151 355.368722 -0.303293 0.460577 -33.091744 0.505567 -0.220270 33.093935 -0.000000 0.000000 0.000000 0.578272 -1.790037 0.696389 0.000000 0.000000 0.000000 0.555709 1.484953 -0.460251 -0.180966 -0.585575 0.425822 -2.890911 -1.718011 -0.337503 1.541569 0.393085 0.278045 0.000000 0.000000 0.000000 0.000000 0.000000 0.000000 -3.002602 -0.273729 -0.561600 0.406510 -6.816176 0.933716 -4.388912 5.259137 3.690793 -8.242804 2.004185 0.694732 0.000000 0.000000 0.000000 0.000000 0.000000 0.000000 0.826170 -1.639424 33.312624 0.374793 2.482851 -0.362045 -2.277202 -1.830958 -0.381327 0.000000 0.000000 0.000000 -0.438573 -0.181878 32.877825 0.772079 -0.544771 0.216467 1.670718 -2.443725 -1.420795 0.000000 0.000000 0.000000
-31.363554 66.830390 355.471421 -0.398947 0.510947 -33.298496 0.053221 0.448396 33.287431 0.108491 -0.856471 0.015946 0.484411 -1.764447 0.680595 0.000000 0.000000 0.000000 0.635713 1.731487 -0.536602 -0.293827 -0.797322 0.503155 -3.444404 -2.131868 -0.483814 1.689182 0.469068 0.388000 0.000000 0.000000 0.000000 0.000000 0.000000 0.000000 -2.866484 0.670962 -0.479173 0.589955 -8.007204 0.809969 -7.001713 2.618442 4.952616 -4.174892 1.673243 -0.652012 0.000000 0.000000 0.000000 0.000000 0.000000 0.000000 1.181021 -1.857788 33.578786 0.196417 3.140082 -0.466602 -2.490022 -2.348041 -0.487437 0.000000 0.000000 0.000000 -0.462705 -0.153714 33.055533 0.872788 -0.632786 0.247278 0.765156 -1.417163 -0.738532 0.000000 0.000000 0.000000
